<svg width="157" height="34" viewBox="0 0 157 34" fill="none" xmlns="http://www.w3.org/2000/svg">
<path d="M0.588602 7.1C0.588602 6.13867 0.803269 5.28 1.2326 4.524C1.67127 3.75867 2.26394 3.166 3.0106 2.746C3.7666 2.31667 4.61127 2.102 5.5446 2.102C6.6366 2.102 7.59327 2.382 8.4146 2.942C9.23594 3.502 9.80994 4.27667 10.1366 5.266H7.8826C7.6586 4.79933 7.34127 4.44933 6.9306 4.216C6.52927 3.98267 6.0626 3.866 5.5306 3.866C4.96127 3.866 4.4526 4.00133 4.0046 4.272C3.56594 4.53333 3.2206 4.90667 2.9686 5.392C2.72594 5.87733 2.6046 6.44667 2.6046 7.1C2.6046 7.744 2.72594 8.31333 2.9686 8.808C3.2206 9.29333 3.56594 9.67133 4.0046 9.942C4.4526 10.2033 4.96127 10.334 5.5306 10.334C6.0626 10.334 6.52927 10.2173 6.9306 9.984C7.34127 9.74133 7.6586 9.38667 7.8826 8.92H10.1366C9.80994 9.91867 9.23594 10.698 8.4146 11.258C7.6026 11.8087 6.64594 12.084 5.5446 12.084C4.61127 12.084 3.7666 11.874 3.0106 11.454C2.26394 11.0247 1.67127 10.432 1.2326 9.676C0.803269 8.92 0.588602 8.06133 0.588602 7.1ZM11.8667 8.094C11.8667 7.31 12.0207 6.61467 12.3287 6.008C12.646 5.40133 13.0707 4.93467 13.6027 4.608C14.144 4.28133 14.746 4.118 15.4087 4.118C15.9874 4.118 16.4914 4.23467 16.9207 4.468C17.3594 4.70133 17.7094 4.99533 17.9707 5.35V4.244H19.9447V12H17.9707V10.866C17.7187 11.23 17.3687 11.5333 16.9207 11.776C16.482 12.0093 15.9734 12.126 15.3947 12.126C14.7414 12.126 14.144 11.958 13.6027 11.622C13.0707 11.286 12.646 10.8147 12.3287 10.208C12.0207 9.592 11.8667 8.88733 11.8667 8.094ZM17.9707 8.122C17.9707 7.646 17.8774 7.24 17.6907 6.904C17.504 6.55867 17.252 6.29733 16.9347 6.12C16.6174 5.93333 16.2767 5.84 15.9127 5.84C15.5487 5.84 15.2127 5.92867 14.9047 6.106C14.5967 6.28333 14.3447 6.54467 14.1487 6.89C13.962 7.226 13.8687 7.62733 13.8687 8.094C13.8687 8.56067 13.962 8.97133 14.1487 9.326C14.3447 9.67133 14.5967 9.93733 14.9047 10.124C15.222 10.3107 15.558 10.404 15.9127 10.404C16.2767 10.404 16.6174 10.3153 16.9347 10.138C17.252 9.95133 17.504 9.69 17.6907 9.354C17.8774 9.00867 17.9707 8.598 17.9707 8.122ZM25.975 5.854H24.617V12H22.629V5.854H21.747V4.244H22.629V3.852C22.629 2.9 22.8996 2.2 23.441 1.752C23.9823 1.304 24.799 1.094 25.891 1.122V2.774C25.415 2.76467 25.0836 2.844 24.897 3.012C24.7103 3.18 24.617 3.48333 24.617 3.922V4.244H25.975V5.854ZM35.0152 7.954C35.0152 8.234 34.9965 8.486 34.9592 8.71H29.2891C29.3358 9.27 29.5318 9.70867 29.8771 10.026C30.2225 10.3433 30.6471 10.502 31.1511 10.502C31.8791 10.502 32.3971 10.1893 32.7051 9.564H34.8192C34.5951 10.3107 34.1658 10.9267 33.5311 11.412C32.8965 11.888 32.1171 12.126 31.1931 12.126C30.4465 12.126 29.7745 11.9627 29.1771 11.636C28.5891 11.3 28.1271 10.8287 27.7911 10.222C27.4645 9.61533 27.3011 8.91533 27.3011 8.122C27.3011 7.31933 27.4645 6.61467 27.7911 6.008C28.1178 5.40133 28.5751 4.93467 29.1631 4.608C29.7511 4.28133 30.4278 4.118 31.1931 4.118C31.9305 4.118 32.5885 4.27667 33.1671 4.594C33.7552 4.91133 34.2078 5.364 34.5251 5.952C34.8518 6.53067 35.0152 7.198 35.0152 7.954ZM32.9851 7.394C32.9758 6.89 32.7938 6.48867 32.4391 6.19C32.0845 5.882 31.6505 5.728 31.1371 5.728C30.6518 5.728 30.2411 5.87733 29.9051 6.176C29.5785 6.46533 29.3778 6.87133 29.3031 7.394H32.9851ZM32.6911 2.2L29.4711 3.67V2.27L32.6911 0.604V2.2ZM40.3977 8.122C40.3977 7.31933 40.561 6.61933 40.8877 6.022C41.2144 5.41533 41.667 4.94867 42.2457 4.622C42.8244 4.286 43.487 4.118 44.2337 4.118C45.195 4.118 45.9884 4.36067 46.6137 4.846C47.2484 5.322 47.673 5.994 47.8877 6.862H45.7737C45.6617 6.526 45.4704 6.26467 45.1997 6.078C44.9384 5.882 44.6117 5.784 44.2197 5.784C43.6597 5.784 43.2164 5.98933 42.8897 6.4C42.563 6.80133 42.3997 7.37533 42.3997 8.122C42.3997 8.85933 42.563 9.43333 42.8897 9.844C43.2164 10.2453 43.6597 10.446 44.2197 10.446C45.013 10.446 45.531 10.0913 45.7737 9.382H47.8877C47.673 10.222 47.2484 10.8893 46.6137 11.384C45.979 11.8787 45.1857 12.126 44.2337 12.126C43.487 12.126 42.8244 11.9627 42.2457 11.636C41.667 11.3 41.2144 10.8333 40.8877 10.236C40.561 9.62933 40.3977 8.92467 40.3977 8.122ZM53.3276 12.126C52.5809 12.126 51.9089 11.9627 51.3116 11.636C50.7143 11.3 50.2429 10.8287 49.8976 10.222C49.5616 9.61533 49.3936 8.91533 49.3936 8.122C49.3936 7.32867 49.5663 6.62867 49.9116 6.022C50.2663 5.41533 50.7469 4.94867 51.3536 4.622C51.9603 4.286 52.6369 4.118 53.3836 4.118C54.1303 4.118 54.8069 4.286 55.4136 4.622C56.0203 4.94867 56.4963 5.41533 56.8416 6.022C57.1963 6.62867 57.3736 7.32867 57.3736 8.122C57.3736 8.91533 57.1916 9.61533 56.8276 10.222C56.4729 10.8287 55.9876 11.3 55.3716 11.636C54.7649 11.9627 54.0836 12.126 53.3276 12.126ZM53.3276 10.418C53.6823 10.418 54.0136 10.334 54.3216 10.166C54.6389 9.98867 54.8909 9.72733 55.0776 9.382C55.2643 9.03667 55.3576 8.61667 55.3576 8.122C55.3576 7.38467 55.1616 6.82 54.7696 6.428C54.3869 6.02667 53.9156 5.826 53.3556 5.826C52.7956 5.826 52.3243 6.02667 51.9416 6.428C51.5683 6.82 51.3816 7.38467 51.3816 8.122C51.3816 8.85933 51.5636 9.42867 51.9276 9.83C52.3009 10.222 52.7676 10.418 53.3276 10.418ZM69.0033 4.132C69.9553 4.132 70.7207 4.426 71.2993 5.014C71.8873 5.59267 72.1813 6.40467 72.1813 7.45V12H70.2213V7.716C70.2213 7.10933 70.0673 6.64733 69.7593 6.33C69.4513 6.00333 69.0313 5.84 68.4993 5.84C67.9673 5.84 67.5427 6.00333 67.2253 6.33C66.9173 6.64733 66.7633 7.10933 66.7633 7.716V12H64.8033V7.716C64.8033 7.10933 64.6493 6.64733 64.3413 6.33C64.0333 6.00333 63.6133 5.84 63.0813 5.84C62.54 5.84 62.1107 6.00333 61.7933 6.33C61.4853 6.64733 61.3313 7.10933 61.3313 7.716V12H59.3713V4.244H61.3313V5.182C61.5833 4.85533 61.9053 4.59867 62.2973 4.412C62.6987 4.22533 63.1373 4.132 63.6133 4.132C64.22 4.132 64.7613 4.26267 65.2373 4.524C65.7133 4.776 66.082 5.14 66.3433 5.616C66.5953 5.168 66.9593 4.80867 67.4353 4.538C67.9207 4.26733 68.4433 4.132 69.0033 4.132ZM81.4652 12.126C80.8305 12.126 80.2612 12.014 79.7572 11.79C79.2532 11.5567 78.8518 11.244 78.5532 10.852C78.2638 10.46 78.1052 10.026 78.0772 9.55H80.0512C80.0885 9.84867 80.2332 10.096 80.4852 10.292C80.7465 10.488 81.0685 10.586 81.4512 10.586C81.8245 10.586 82.1138 10.5113 82.3192 10.362C82.5338 10.2127 82.6412 10.0213 82.6412 9.788C82.6412 9.536 82.5105 9.34933 82.2492 9.228C81.9972 9.09733 81.5912 8.95733 81.0312 8.808C80.4525 8.668 79.9765 8.52333 79.6032 8.374C79.2392 8.22467 78.9218 7.996 78.6512 7.688C78.3898 7.38 78.2592 6.96467 78.2592 6.442C78.2592 6.01267 78.3805 5.62067 78.6232 5.266C78.8752 4.91133 79.2298 4.63133 79.6872 4.426C80.1538 4.22067 80.6998 4.118 81.3252 4.118C82.2492 4.118 82.9865 4.35133 83.5372 4.818C84.0878 5.27533 84.3912 5.896 84.4472 6.68H82.5712C82.5432 6.372 82.4125 6.12933 82.1792 5.952C81.9552 5.76533 81.6518 5.672 81.2692 5.672C80.9145 5.672 80.6392 5.73733 80.4432 5.868C80.2565 5.99867 80.1632 6.18067 80.1632 6.414C80.1632 6.67533 80.2938 6.876 80.5552 7.016C80.8165 7.14667 81.2225 7.282 81.7732 7.422C82.3332 7.562 82.7952 7.70667 83.1592 7.856C83.5232 8.00533 83.8358 8.23867 84.0972 8.556C84.3678 8.864 84.5078 9.27467 84.5172 9.788C84.5172 10.236 84.3912 10.6373 84.1392 10.992C83.8965 11.3467 83.5418 11.6267 83.0752 11.832C82.6178 12.028 82.0812 12.126 81.4652 12.126ZM90.1301 12.126C89.3834 12.126 88.7114 11.9627 88.1141 11.636C87.5168 11.3 87.0454 10.8287 86.7001 10.222C86.3641 9.61533 86.1961 8.91533 86.1961 8.122C86.1961 7.32867 86.3688 6.62867 86.7141 6.022C87.0688 5.41533 87.5494 4.94867 88.1561 4.622C88.7628 4.286 89.4394 4.118 90.1861 4.118C90.9328 4.118 91.6094 4.286 92.2161 4.622C92.8228 4.94867 93.2988 5.41533 93.6441 6.022C93.9988 6.62867 94.1761 7.32867 94.1761 8.122C94.1761 8.91533 93.9941 9.61533 93.6301 10.222C93.2754 10.8287 92.7901 11.3 92.1741 11.636C91.5674 11.9627 90.8861 12.126 90.1301 12.126ZM90.1301 10.418C90.4848 10.418 90.8161 10.334 91.1241 10.166C91.4414 9.98867 91.6934 9.72733 91.8801 9.382C92.0668 9.03667 92.1601 8.61667 92.1601 8.122C92.1601 7.38467 91.9641 6.82 91.5721 6.428C91.1894 6.02667 90.7181 5.826 90.1581 5.826C89.5981 5.826 89.1268 6.02667 88.7441 6.428C88.3708 6.82 88.1841 7.38467 88.1841 8.122C88.1841 8.85933 88.3661 9.42867 88.7301 9.83C89.1034 10.222 89.5701 10.418 90.1301 10.418ZM98.1338 5.448C98.3858 5.03733 98.7125 4.71533 99.1138 4.482C99.5245 4.24867 99.9912 4.132 100.514 4.132V6.19H99.9958C99.3798 6.19 98.9132 6.33467 98.5958 6.624C98.2878 6.91333 98.1338 7.41733 98.1338 8.136V12H96.1738V4.244H98.1338V5.448ZM105.628 10.194L107.588 4.244H109.674L106.804 12H104.424L101.568 4.244H103.668L105.628 10.194ZM118.545 7.954C118.545 8.234 118.526 8.486 118.489 8.71H112.819C112.866 9.27 113.062 9.70867 113.407 10.026C113.752 10.3433 114.177 10.502 114.681 10.502C115.409 10.502 115.927 10.1893 116.235 9.564H118.349C118.125 10.3107 117.696 10.9267 117.061 11.412C116.426 11.888 115.647 12.126 114.723 12.126C113.976 12.126 113.304 11.9627 112.707 11.636C112.119 11.3 111.657 10.8287 111.321 10.222C110.994 9.61533 110.831 8.91533 110.831 8.122C110.831 7.31933 110.994 6.61467 111.321 6.008C111.648 5.40133 112.105 4.93467 112.693 4.608C113.281 4.28133 113.958 4.118 114.723 4.118C115.46 4.118 116.118 4.27667 116.697 4.594C117.285 4.91133 117.738 5.364 118.055 5.952C118.382 6.53067 118.545 7.198 118.545 7.954ZM116.515 7.394C116.506 6.89 116.324 6.48867 115.969 6.19C115.614 5.882 115.18 5.728 114.667 5.728C114.182 5.728 113.771 5.87733 113.435 6.176C113.108 6.46533 112.908 6.87133 112.833 7.394H116.515ZM122.817 5.854V9.606C122.817 9.86733 122.878 10.0587 122.999 10.18C123.13 10.292 123.345 10.348 123.643 10.348H124.553V12H123.321C121.669 12 120.843 11.1973 120.843 9.592V5.854H119.919V4.244H120.843V2.326H122.817V4.244H124.553V5.854H122.817ZM133.733 7.954C133.733 8.234 133.715 8.486 133.677 8.71H128.007C128.054 9.27 128.25 9.70867 128.595 10.026C128.941 10.3433 129.365 10.502 129.869 10.502C130.597 10.502 131.115 10.1893 131.423 9.564H133.537C133.313 10.3107 132.884 10.9267 132.249 11.412C131.615 11.888 130.835 12.126 129.911 12.126C129.165 12.126 128.493 11.9627 127.895 11.636C127.307 11.3 126.845 10.8287 126.509 10.222C126.183 9.61533 126.019 8.91533 126.019 8.122C126.019 7.31933 126.183 6.61467 126.509 6.008C126.836 5.40133 127.293 4.93467 127.881 4.608C128.469 4.28133 129.146 4.118 129.911 4.118C130.649 4.118 131.307 4.27667 131.885 4.594C132.473 4.91133 132.926 5.364 133.243 5.952C133.57 6.53067 133.733 7.198 133.733 7.954ZM131.703 7.394C131.694 6.89 131.512 6.48867 131.157 6.19C130.803 5.882 130.369 5.728 129.855 5.728C129.37 5.728 128.959 5.87733 128.623 6.176C128.297 6.46533 128.096 6.87133 128.021 7.394H131.703ZM139.116 8.094C139.116 7.31 139.27 6.61467 139.578 6.008C139.895 5.40133 140.324 4.93467 140.866 4.608C141.407 4.28133 142.009 4.118 142.672 4.118C143.176 4.118 143.656 4.23 144.114 4.454C144.571 4.66867 144.935 4.958 145.206 5.322V1.64H147.194V12H145.206V10.852C144.963 11.2347 144.622 11.5427 144.184 11.776C143.745 12.0093 143.236 12.126 142.658 12.126C142.004 12.126 141.407 11.958 140.866 11.622C140.324 11.286 139.895 10.8147 139.578 10.208C139.27 9.592 139.116 8.88733 139.116 8.094ZM145.22 8.122C145.22 7.646 145.126 7.24 144.94 6.904C144.753 6.55867 144.501 6.29733 144.184 6.12C143.866 5.93333 143.526 5.84 143.162 5.84C142.798 5.84 142.462 5.92867 142.154 6.106C141.846 6.28333 141.594 6.54467 141.398 6.89C141.211 7.226 141.118 7.62733 141.118 8.094C141.118 8.56067 141.211 8.97133 141.398 9.326C141.594 9.67133 141.846 9.93733 142.154 10.124C142.471 10.3107 142.807 10.404 143.162 10.404C143.526 10.404 143.866 10.3153 144.184 10.138C144.501 9.95133 144.753 9.69 144.94 9.354C145.126 9.00867 145.22 8.598 145.22 8.122ZM156.878 7.954C156.878 8.234 156.859 8.486 156.822 8.71H151.152C151.199 9.27 151.395 9.70867 151.74 10.026C152.085 10.3433 152.51 10.502 153.014 10.502C153.742 10.502 154.26 10.1893 154.568 9.564H156.682C156.458 10.3107 156.029 10.9267 155.394 11.412C154.759 11.888 153.98 12.126 153.056 12.126C152.309 12.126 151.637 11.9627 151.04 11.636C150.452 11.3 149.99 10.8287 149.654 10.222C149.327 9.61533 149.164 8.91533 149.164 8.122C149.164 7.31933 149.327 6.61467 149.654 6.008C149.981 5.40133 150.438 4.93467 151.026 4.608C151.614 4.28133 152.291 4.118 153.056 4.118C153.793 4.118 154.451 4.27667 155.03 4.594C155.618 4.91133 156.071 5.364 156.388 5.952C156.715 6.53067 156.878 7.198 156.878 7.954ZM154.848 7.394C154.839 6.89 154.657 6.48867 154.302 6.19C153.947 5.882 153.513 5.728 153 5.728C152.515 5.728 152.104 5.87733 151.768 6.176C151.441 6.46533 151.241 6.87133 151.166 7.394H154.848ZM4.2986 31.194L6.2586 25.244H8.3446L5.4746 33H3.0946L0.238602 25.244H2.3386L4.2986 31.194ZM9.50146 29.094C9.50146 28.31 9.65546 27.6147 9.96346 27.008C10.2808 26.4013 10.7055 25.9347 11.2375 25.608C11.7788 25.2813 12.3808 25.118 13.0435 25.118C13.6221 25.118 14.1261 25.2347 14.5555 25.468C14.9941 25.7013 15.3441 25.9953 15.6055 26.35V25.244H17.5795V33H15.6055V31.866C15.3535 32.23 15.0035 32.5333 14.5555 32.776C14.1168 33.0093 13.6081 33.126 13.0295 33.126C12.3761 33.126 11.7788 32.958 11.2375 32.622C10.7055 32.286 10.2808 31.8147 9.96346 31.208C9.65546 30.592 9.50146 29.8873 9.50146 29.094ZM15.6055 29.122C15.6055 28.646 15.5121 28.24 15.3255 27.904C15.1388 27.5587 14.8868 27.2973 14.5695 27.12C14.2521 26.9333 13.9115 26.84 13.5475 26.84C13.1835 26.84 12.8475 26.9287 12.5395 27.106C12.2315 27.2833 11.9795 27.5447 11.7835 27.89C11.5968 28.226 11.5035 28.6273 11.5035 29.094C11.5035 29.5607 11.5968 29.9713 11.7835 30.326C11.9795 30.6713 12.2315 30.9373 12.5395 31.124C12.8568 31.3107 13.1928 31.404 13.5475 31.404C13.9115 31.404 14.2521 31.3153 14.5695 31.138C14.8868 30.9513 15.1388 30.69 15.3255 30.354C15.5121 30.0087 15.6055 29.598 15.6055 29.122ZM24.3517 25.132C25.2757 25.132 26.0224 25.426 26.5917 26.014C27.1611 26.5927 27.4457 27.4047 27.4457 28.45V33H25.4857V28.716C25.4857 28.1 25.3317 27.6287 25.0237 27.302C24.7157 26.966 24.2957 26.798 23.7637 26.798C23.2224 26.798 22.7931 26.966 22.4757 27.302C22.1677 27.6287 22.0137 28.1 22.0137 28.716V33H20.0537V25.244H22.0137V26.21C22.2751 25.874 22.6064 25.6127 23.0077 25.426C23.4184 25.23 23.8664 25.132 24.3517 25.132ZM30.8636 24.32C30.5183 24.32 30.2289 24.2127 29.9956 23.998C29.7716 23.774 29.6596 23.4987 29.6596 23.172C29.6596 22.8453 29.7716 22.5747 29.9956 22.36C30.2289 22.136 30.5183 22.024 30.8636 22.024C31.2089 22.024 31.4936 22.136 31.7176 22.36C31.9509 22.5747 32.0676 22.8453 32.0676 23.172C32.0676 23.4987 31.9509 23.774 31.7176 23.998C31.4936 24.2127 31.2089 24.32 30.8636 24.32ZM31.8296 25.244V33H29.8696V25.244H31.8296ZM36.2861 22.64V33H34.3261V22.64H36.2861ZM40.7426 22.64V33H38.7826V22.64H40.7426ZM42.7351 29.094C42.7351 28.31 42.8891 27.6147 43.1971 27.008C43.5144 26.4013 43.9391 25.9347 44.4711 25.608C45.0124 25.2813 45.6144 25.118 46.2771 25.118C46.8557 25.118 47.3597 25.2347 47.7891 25.468C48.2277 25.7013 48.5777 25.9953 48.8391 26.35V25.244H50.8131V33H48.8391V31.866C48.5871 32.23 48.2371 32.5333 47.7891 32.776C47.3504 33.0093 46.8417 33.126 46.2631 33.126C45.6097 33.126 45.0124 32.958 44.4711 32.622C43.9391 32.286 43.5144 31.8147 43.1971 31.208C42.8891 30.592 42.7351 29.8873 42.7351 29.094ZM48.8391 29.122C48.8391 28.646 48.7457 28.24 48.5591 27.904C48.3724 27.5587 48.1204 27.2973 47.8031 27.12C47.4857 26.9333 47.1451 26.84 46.7811 26.84C46.4171 26.84 46.0811 26.9287 45.7731 27.106C45.4651 27.2833 45.2131 27.5447 45.0171 27.89C44.8304 28.226 44.7371 28.6273 44.7371 29.094C44.7371 29.5607 44.8304 29.9713 45.0171 30.326C45.2131 30.6713 45.4651 30.9373 45.7731 31.124C46.0904 31.3107 46.4264 31.404 46.7811 31.404C47.1451 31.404 47.4857 31.3153 47.8031 31.138C48.1204 30.9513 48.3724 30.69 48.5591 30.354C48.7457 30.0087 48.8391 29.598 48.8391 29.122Z" fill="#7E7D7A"/>
</svg>
