<svg width="112" height="12" viewBox="0 0 112 12" fill="none" xmlns="http://www.w3.org/2000/svg">
<path d="M8.17057 1.228V11H6.21057V6.842H2.02457V11H0.0645719V1.228H2.02457V5.246H6.21057V1.228H8.17057ZM14.1037 11.126C13.3571 11.126 12.6851 10.9627 12.0877 10.636C11.4904 10.3 11.0191 9.82867 10.6737 9.222C10.3377 8.61533 10.1697 7.91533 10.1697 7.122C10.1697 6.32867 10.3424 5.62867 10.6877 5.022C11.0424 4.41533 11.5231 3.94867 12.1297 3.622C12.7364 3.286 13.4131 3.118 14.1597 3.118C14.9064 3.118 15.5831 3.286 16.1897 3.622C16.7964 3.94867 17.2724 4.41533 17.6177 5.022C17.9724 5.62867 18.1497 6.32867 18.1497 7.122C18.1497 7.91533 17.9677 8.61533 17.6037 9.222C17.2491 9.82867 16.7637 10.3 16.1477 10.636C15.5411 10.9627 14.8597 11.126 14.1037 11.126ZM14.1037 9.418C14.4584 9.418 14.7897 9.334 15.0977 9.166C15.4151 8.98867 15.6671 8.72733 15.8537 8.382C16.0404 8.03667 16.1337 7.61667 16.1337 7.122C16.1337 6.38467 15.9377 5.82 15.5457 5.428C15.1631 5.02667 14.6917 4.826 14.1317 4.826C13.5717 4.826 13.1004 5.02667 12.7177 5.428C12.3444 5.82 12.1577 6.38467 12.1577 7.122C12.1577 7.85933 12.3397 8.42867 12.7037 8.83C13.0771 9.222 13.5437 9.418 14.1037 9.418ZM22.4295 4.854V8.606C22.4295 8.86733 22.4901 9.05867 22.6115 9.18C22.7421 9.292 22.9568 9.348 23.2555 9.348H24.1655V11H22.9335C21.2815 11 20.4555 10.1973 20.4555 8.592V4.854H19.5315V3.244H20.4555V1.326H22.4295V3.244H24.1655V4.854H22.4295ZM40.6851 1.228V11H38.7251V4.644L36.1071 11H34.6231L31.9911 4.644V11H30.0311V1.228H32.2571L35.3651 8.494L38.4731 1.228H40.6851ZM46.6269 11.126C45.8803 11.126 45.2083 10.9627 44.6109 10.636C44.0136 10.3 43.5423 9.82867 43.1969 9.222C42.8609 8.61533 42.6929 7.91533 42.6929 7.122C42.6929 6.32867 42.8656 5.62867 43.2109 5.022C43.5656 4.41533 44.0463 3.94867 44.6529 3.622C45.2596 3.286 45.9363 3.118 46.6829 3.118C47.4296 3.118 48.1063 3.286 48.7129 3.622C49.3196 3.94867 49.7956 4.41533 50.1409 5.022C50.4956 5.62867 50.6729 6.32867 50.6729 7.122C50.6729 7.91533 50.4909 8.61533 50.1269 9.222C49.7723 9.82867 49.2869 10.3 48.6709 10.636C48.0643 10.9627 47.3829 11.126 46.6269 11.126ZM46.6269 9.418C46.9816 9.418 47.3129 9.334 47.6209 9.166C47.9383 8.98867 48.1903 8.72733 48.3769 8.382C48.5636 8.03667 48.6569 7.61667 48.6569 7.122C48.6569 6.38467 48.4609 5.82 48.0689 5.428C47.6863 5.02667 47.2149 4.826 46.6549 4.826C46.0949 4.826 45.6236 5.02667 45.2409 5.428C44.8676 5.82 44.6809 6.38467 44.6809 7.122C44.6809 7.85933 44.8629 8.42867 45.2269 8.83C45.6003 9.222 46.0669 9.418 46.6269 9.418ZM52.1667 7.122C52.1667 6.31933 52.33 5.61933 52.6567 5.022C52.9833 4.41533 53.436 3.94867 54.0147 3.622C54.5933 3.286 55.256 3.118 56.0027 3.118C56.964 3.118 57.7573 3.36067 58.3827 3.846C59.0173 4.322 59.442 4.994 59.6567 5.862H57.5427C57.4307 5.526 57.2393 5.26467 56.9687 5.078C56.7073 4.882 56.3807 4.784 55.9887 4.784C55.4287 4.784 54.9853 4.98933 54.6587 5.4C54.332 5.80133 54.1687 6.37533 54.1687 7.122C54.1687 7.85933 54.332 8.43333 54.6587 8.844C54.9853 9.24533 55.4287 9.446 55.9887 9.446C56.782 9.446 57.3 9.09133 57.5427 8.382H59.6567C59.442 9.222 59.0173 9.88933 58.3827 10.384C57.748 10.8787 56.9547 11.126 56.0027 11.126C55.256 11.126 54.5933 10.9627 54.0147 10.636C53.436 10.3 52.9833 9.83333 52.6567 9.236C52.33 8.62933 52.1667 7.92467 52.1667 7.122ZM61.1485 7.122C61.1485 6.31933 61.3119 5.61933 61.6385 5.022C61.9652 4.41533 62.4179 3.94867 62.9965 3.622C63.5752 3.286 64.2379 3.118 64.9845 3.118C65.9459 3.118 66.7392 3.36067 67.3645 3.846C67.9992 4.322 68.4239 4.994 68.6385 5.862H66.5245C66.4125 5.526 66.2212 5.26467 65.9505 5.078C65.6892 4.882 65.3625 4.784 64.9705 4.784C64.4105 4.784 63.9672 4.98933 63.6405 5.4C63.3139 5.80133 63.1505 6.37533 63.1505 7.122C63.1505 7.85933 63.3139 8.43333 63.6405 8.844C63.9672 9.24533 64.4105 9.446 64.9705 9.446C65.7639 9.446 66.2819 9.09133 66.5245 8.382H68.6385C68.4239 9.222 67.9992 9.88933 67.3645 10.384C66.7299 10.8787 65.9365 11.126 64.9845 11.126C64.2379 11.126 63.5752 10.9627 62.9965 10.636C62.4179 10.3 61.9652 9.83333 61.6385 9.236C61.3119 8.62933 61.1485 7.92467 61.1485 7.122ZM70.1304 7.094C70.1304 6.31 70.2844 5.61467 70.5924 5.008C70.9098 4.40133 71.3344 3.93467 71.8664 3.608C72.4078 3.28133 73.0098 3.118 73.6724 3.118C74.2511 3.118 74.7551 3.23467 75.1844 3.468C75.6231 3.70133 75.9731 3.99533 76.2344 4.35V3.244H78.2084V11H76.2344V9.866C75.9824 10.23 75.6324 10.5333 75.1844 10.776C74.7458 11.0093 74.2371 11.126 73.6584 11.126C73.0051 11.126 72.4078 10.958 71.8664 10.622C71.3344 10.286 70.9098 9.81467 70.5924 9.208C70.2844 8.592 70.1304 7.88733 70.1304 7.094ZM76.2344 7.122C76.2344 6.646 76.1411 6.24 75.9544 5.904C75.7678 5.55867 75.5158 5.29733 75.1984 5.12C74.8811 4.93333 74.5404 4.84 74.1764 4.84C73.8124 4.84 73.4764 4.92867 73.1684 5.106C72.8604 5.28333 72.6084 5.54467 72.4124 5.89C72.2258 6.226 72.1324 6.62733 72.1324 7.094C72.1324 7.56067 72.2258 7.97133 72.4124 8.326C72.6084 8.67133 72.8604 8.93733 73.1684 9.124C73.4858 9.31067 73.8218 9.404 74.1764 9.404C74.5404 9.404 74.8811 9.31533 75.1984 9.138C75.5158 8.95133 75.7678 8.69 75.9544 8.354C76.1411 8.00867 76.2344 7.598 76.2344 7.122ZM80.1787 7.122C80.1787 6.31933 80.342 5.61933 80.6687 5.022C80.9954 4.41533 81.448 3.94867 82.0267 3.622C82.6054 3.286 83.268 3.118 84.0147 3.118C84.976 3.118 85.7694 3.36067 86.3947 3.846C87.0294 4.322 87.454 4.994 87.6687 5.862H85.5547C85.4427 5.526 85.2514 5.26467 84.9807 5.078C84.7194 4.882 84.3927 4.784 84.0007 4.784C83.4407 4.784 82.9974 4.98933 82.6707 5.4C82.344 5.80133 82.1807 6.37533 82.1807 7.122C82.1807 7.85933 82.344 8.43333 82.6707 8.844C82.9974 9.24533 83.4407 9.446 84.0007 9.446C84.794 9.446 85.312 9.09133 85.5547 8.382H87.6687C87.454 9.222 87.0294 9.88933 86.3947 10.384C85.76 10.8787 84.9667 11.126 84.0147 11.126C83.268 11.126 82.6054 10.9627 82.0267 10.636C81.448 10.3 80.9954 9.83333 80.6687 9.236C80.342 8.62933 80.1787 7.92467 80.1787 7.122ZM90.6586 2.32C90.3132 2.32 90.0239 2.21267 89.7906 1.998C89.5666 1.774 89.4546 1.49867 89.4546 1.172C89.4546 0.845333 89.5666 0.574666 89.7906 0.359999C90.0239 0.135999 90.3132 0.0239995 90.6586 0.0239995C91.0039 0.0239995 91.2886 0.135999 91.5126 0.359999C91.7459 0.574666 91.8626 0.845333 91.8626 1.172C91.8626 1.49867 91.7459 1.774 91.5126 1.998C91.2886 2.21267 91.0039 2.32 90.6586 2.32ZM91.6246 3.244V11H89.6646V3.244H91.6246ZM98.4191 3.132C99.3431 3.132 100.09 3.426 100.659 4.014C101.228 4.59267 101.513 5.40467 101.513 6.45V11H99.5531V6.716C99.5531 6.1 99.3991 5.62867 99.0911 5.302C98.7831 4.966 98.3631 4.798 97.8311 4.798C97.2897 4.798 96.8604 4.966 96.5431 5.302C96.2351 5.62867 96.0811 6.1 96.0811 6.716V11H94.1211V3.244H96.0811V4.21C96.3424 3.874 96.6737 3.61267 97.0751 3.426C97.4857 3.23 97.9337 3.132 98.4191 3.132ZM107.381 11.126C106.634 11.126 105.962 10.9627 105.365 10.636C104.768 10.3 104.296 9.82867 103.951 9.222C103.615 8.61533 103.447 7.91533 103.447 7.122C103.447 6.32867 103.62 5.62867 103.965 5.022C104.32 4.41533 104.8 3.94867 105.407 3.622C106.014 3.286 106.69 3.118 107.437 3.118C108.184 3.118 108.86 3.286 109.467 3.622C110.074 3.94867 110.55 4.41533 110.895 5.022C111.25 5.62867 111.427 6.32867 111.427 7.122C111.427 7.91533 111.245 8.61533 110.881 9.222C110.526 9.82867 110.041 10.3 109.425 10.636C108.818 10.9627 108.137 11.126 107.381 11.126ZM107.381 9.418C107.736 9.418 108.067 9.334 108.375 9.166C108.692 8.98867 108.944 8.72733 109.131 8.382C109.318 8.03667 109.411 7.61667 109.411 7.122C109.411 6.38467 109.215 5.82 108.823 5.428C108.44 5.02667 107.969 4.826 107.409 4.826C106.849 4.826 106.378 5.02667 105.995 5.428C105.622 5.82 105.435 6.38467 105.435 7.122C105.435 7.85933 105.617 8.42867 105.981 8.83C106.354 9.222 106.821 9.418 107.381 9.418Z" fill="#7E7D7A"/>
</svg>
