<svg width="183" height="70" viewBox="0 0 183 70" fill="none" xmlns="http://www.w3.org/2000/svg">
<g clip-path="url(#clip0_1_7)">
<path d="M49.2485 68.1054C52.812 65.9454 54.6672 61.4632 53.829 57.0399C53.0472 52.9116 49.5255 49.405 45.3983 48.626C44.4695 48.4515 43.5407 48.3925 42.5971 48.3925C33.9826 48.3901 25.3681 48.3901 16.7511 48.3655C11.2932 48.3508 6.96271 45.0899 5.6883 40.0818C4.23744 34.3783 8.01164 28.2423 13.7195 27.0333C13.82 27.0111 13.9327 27.0529 14.2195 27.0849C12.5407 27.9597 11.3937 29.1269 10.9746 30.8594C10.1218 34.3906 12.7024 37.5532 16.4693 37.5605C25.4514 37.5777 34.436 37.4942 43.4181 37.5925C49.3711 37.6564 54.0276 40.3398 57.1351 45.4241C63.0097 55.0298 57.3631 67.6262 46.3247 69.7346C44.7807 70.0295 43.2613 70.1769 41.7393 69.651C38.9748 68.6951 37.1539 66.142 37.1539 63.2054C37.1564 60.2787 39.0067 57.6862 41.7516 56.7647C44.5406 55.8285 47.6751 56.8114 49.4054 59.1631C51.1234 61.5 51.1748 64.7019 49.5304 67.088C49.3441 67.3559 49.1529 67.6188 48.9618 67.8842C48.8319 68.0169 48.4349 68.039 48.5501 68.2012C48.702 68.4101 49.0427 68.3732 49.2485 68.1054Z" fill="#212423"/>
<path d="M50.5718 0.0687625C51.2212 -0.125368 51.7163 0.135111 52.2064 0.304668C57.0296 1.95846 60.2009 7.11889 59.3921 11.9722C58.4829 17.4324 54.0862 21.3002 48.6062 21.3199C37.9894 21.3592 27.3751 21.3592 16.7583 21.3199C12.4449 21.3027 8.66336 22.6321 5.42097 25.4655C2.41141 28.0948 0.700764 31.4466 0.0929696 35.5185C-0.259943 33.5575 0.421375 29.412 1.54138 26.3943C5.10482 16.7836 14.0281 10.5838 24.4121 10.5518C32.333 10.5248 40.254 10.5543 48.1749 10.542C51.1036 10.5371 53.2235 8.99139 53.8583 6.45787C54.5077 3.86291 53.2407 1.32938 50.5718 0.0687625Z" fill="#DFCB02"/>
<path d="M169.994 30.4023C169.994 28.3971 170.021 26.3919 169.984 24.3867C169.964 23.335 169.834 22.2857 168.447 22.1358C168.227 22.1112 168.065 22.035 168.065 21.7672C168.065 21.4207 168.295 21.3764 168.553 21.3863C171.722 21.519 174.93 20.9906 178.057 21.8556C180.314 22.4773 181.223 23.5168 181.324 25.4311C181.439 27.564 180.667 28.7681 178.476 29.5987C177.67 29.9034 177.449 30.1221 177.991 30.9159C178.888 32.2281 179.652 33.6337 180.503 34.9779C180.99 35.747 181.637 36.3736 182.49 36.7422C182.748 36.8528 183.064 36.8799 182.99 37.2927C182.917 37.6982 182.564 37.6269 182.316 37.676C180.709 37.9979 179.339 37.5409 178.204 36.3589C176.856 34.9558 176.04 33.1987 175.015 31.5769C174.775 31.196 174.55 30.8077 174.31 30.4293C174.123 30.1394 173.824 30.1664 173.54 30.191C173.091 30.2303 173.214 30.594 173.212 30.8495C173.202 32.7319 173.177 34.6166 173.219 36.4965C173.236 37.2386 173.111 37.5777 172.241 37.5704C170.004 37.5507 170.004 37.5974 170.004 35.3121C170.004 33.6755 170.004 32.0389 170.004 30.3998C169.996 30.4023 169.996 30.4023 169.994 30.4023ZM173.202 25.9004C173.202 26.758 173.197 27.6157 173.204 28.4708C173.207 28.7854 173.138 29.1564 173.64 29.1785C175.018 29.24 176.349 29.1466 177.309 27.972C178.045 27.0726 178.135 24.9543 177.523 23.8854C176.917 22.8287 175.508 22.2193 174.14 22.3962C173.503 22.4773 173.101 22.6616 173.182 23.4529C173.266 24.2614 173.202 25.0821 173.202 25.9004Z" fill="#DFCB02"/>
<path d="M70.4552 37.9218C69.2641 37.9144 68.0926 37.767 66.9824 37.3099C65.1173 36.5432 64.1493 34.2677 64.8845 32.4173C64.9556 32.2404 65.0463 32.1519 65.2276 32.1618C65.3869 32.1691 65.556 32.1569 65.6051 32.3756C65.6859 32.7343 65.7644 33.0956 65.8648 33.447C66.6221 36.1181 69.0116 37.4303 71.6756 36.6415C73.5554 36.0862 74.075 34.1399 72.7221 32.6975C72.0433 31.975 71.1928 31.4811 70.3596 30.9626C69.1464 30.2106 67.8892 29.5177 66.7373 28.6822C65.257 27.6083 64.6345 26.1044 65.012 24.2712C65.382 22.4774 66.6809 21.5976 68.3107 21.1995C70.2199 20.7326 72.1315 20.8825 73.9524 21.6443C75.6753 22.3668 76.614 24.7824 75.9081 26.5025C75.8346 26.6819 75.739 26.7531 75.5577 26.7507C75.3273 26.7482 75.217 26.6598 75.1459 26.414C74.9474 25.7088 74.7734 24.9839 74.4597 24.3302C73.5824 22.4897 71.433 21.6124 69.5018 22.2341C67.6539 22.8312 67.1932 24.8929 68.6367 26.2076C69.6096 27.0923 70.8081 27.6501 71.9183 28.3332C72.9942 28.9967 74.1289 29.5668 75.0896 30.4097C77.3247 32.3706 76.9644 35.6512 74.3617 37.0912C73.1437 37.7694 71.8104 37.8997 70.4552 37.9218Z" fill="#212423"/>
<path d="M83.5325 37.4254C85.8461 32.2478 88.1572 27.08 90.4584 21.9048C90.6325 21.5141 90.8677 21.3838 91.2942 21.3716C91.8578 21.3544 91.9436 21.7426 92.1005 22.1161C93.7376 26.0258 95.3723 29.9379 97.0216 33.845C97.5461 35.0885 98.0338 36.3786 99.5116 36.8258C99.7543 36.8995 99.8351 37.0642 99.7837 37.2878C99.7077 37.6048 99.4259 37.5556 99.1906 37.59C96.7913 37.9242 94.7449 36.8258 93.8577 34.4545C93.4312 33.3167 92.848 32.9899 91.7255 33.0759C90.5491 33.1668 89.3531 33.1742 88.1792 33.0734C87.1352 32.985 86.5127 33.2749 86.1892 34.3242C85.9417 35.1376 85.4687 35.8797 85.1795 36.6833C84.8878 37.504 84.3879 37.7326 83.5325 37.4254ZM92.7426 31.8964C91.8799 29.8445 91.0466 27.8639 90.1104 25.6375C89.113 27.8884 88.2454 29.842 87.3361 31.8964C89.1742 31.8964 90.8653 31.8964 92.7426 31.8964Z" fill="#212423"/>
<path d="M127.887 29.3973C127.909 30.5227 128.002 31.5794 128.284 32.6139C128.828 34.6167 129.796 36.3024 131.992 36.7496C134.335 37.2264 136.315 36.4965 137.925 34.6732C138.239 34.3169 138.293 33.1521 139.119 33.7762C139.996 34.4422 138.977 34.9926 138.629 35.4276C135.749 39.0301 129.264 38.9244 126.279 35.2679C123.858 32.3018 123.86 27.2864 126.289 24.0402C128.531 21.0398 132.813 20.0126 136.462 21.5952C138.506 22.4823 139.3 23.9297 138.957 26.1167C138.923 26.328 138.918 26.5418 138.668 26.5811C138.41 26.6204 138.2 26.5639 138.129 26.2371C138.05 25.8808 137.933 25.5269 137.798 25.1878C136.942 23.045 135.438 22.0301 133.181 22.0572C130.904 22.0842 129.308 23.2121 128.524 25.35C128.039 26.6721 127.99 28.0678 127.887 29.3973Z" fill="#DFCB02"/>
<path d="M146.246 37.4303C148.559 32.2429 150.853 27.107 153.142 21.9711C153.299 21.6173 153.485 21.3838 153.946 21.3691C154.559 21.3494 154.669 21.7574 154.843 22.1776C156.497 26.1265 158.156 30.073 159.813 34.0195C160.308 35.199 160.825 36.3663 162.181 36.8086C162.411 36.8848 162.529 37.0224 162.487 37.2534C162.413 37.6588 162.07 37.5606 161.803 37.5876C159.308 37.8309 157.46 36.8234 156.573 34.4815C156.152 33.3708 155.603 32.9801 154.453 33.0734C153.198 33.1742 151.922 33.1693 150.664 33.0734C149.718 33.0022 149.263 33.3732 148.961 34.2136C148.657 35.0565 148.206 35.8429 147.89 36.6808C147.613 37.418 147.179 37.7277 146.246 37.4303ZM152.828 25.6572C151.902 27.7385 151.11 29.5373 150.294 31.3287C150.044 31.8792 150.307 31.9529 150.76 31.9504C152.101 31.9431 153.441 31.9431 154.779 31.9504C155.174 31.9529 155.448 31.8595 155.255 31.3951C154.495 29.5742 153.721 27.7607 152.828 25.6572Z" fill="#DFCB02"/>
<path d="M110.462 29.7069C110.462 31.6285 110.503 33.5502 110.442 35.4718C110.418 36.2532 110.665 36.4228 111.4 36.4056C113.601 36.3564 115.804 36.3908 118.005 36.3859C118.466 36.3835 118.91 36.3122 118.875 37.0322C118.841 37.7203 118.368 37.5384 118.003 37.5409C114.782 37.5507 111.56 37.5139 108.339 37.5655C107.494 37.5802 107.241 37.3738 107.254 36.4965C107.303 32.6139 107.29 28.7288 107.266 24.8438C107.259 23.6249 107.384 22.266 105.592 22.1186C105.318 22.0965 105.31 21.8753 105.33 21.6664C105.354 21.3838 105.57 21.3838 105.773 21.3863C106.793 21.3986 107.817 21.3445 108.827 21.4477C110.138 21.5829 110.4 22.6322 110.427 23.6937C110.479 25.6965 110.442 27.6992 110.442 29.7019C110.445 29.7069 110.452 29.7069 110.462 29.7069Z" fill="#212423"/>
<path d="M49.2485 68.1054C49.0451 68.3732 48.702 68.4101 48.5549 68.2012C48.4397 68.039 48.8343 68.0169 48.9667 67.8842C49.0598 67.9579 49.1529 68.0317 49.2485 68.1054Z" fill="#FEFEFE"/>
</g>
<defs>
<clipPath id="clip0_1_7">
<rect width="183" height="70" fill="white"/>
</clipPath>
</defs>
</svg>
